{"accessors":[{"bufferView":0,"byteOffset":0,"componentType":5126,"count":90,"max":[0.1000000000000001,0.050000000000000086,0.05000000000000004],"min":[-0.1000000000000001,-0.050000000000000086,-0.05000000000000004],"type":"VEC3"},{"bufferView":0,"byteOffset":1080,"componentType":5126,"count":44,"max":[-0.1000000000000001,0.05000000000000017,0.050000000000000024],"min":[-0.1000000000000002,-0.04999999999999989,-0.050000000000000065],"type":"VEC3"},{"bufferView":0,"byteOffset":1608,"componentType":5126,"count":44,"max":[0.1000000000000002,0.04999999999999989,0.050000000000000065],"min":[0.10000000000000007,-0.05000000000000017,-0.050000000000000024],"type":"VEC3"},{"bufferView":1,"byteOffset":0,"componentType":5126,"count":90,"type":"VEC3"},{"bufferView":1,"byteOffset":1080,"componentType":5126,"count":44,"type":"VEC3"},{"bufferView":1,"byteOffset":1608,"componentType":5126,"count":44,"type":"VEC3"},{"bufferView":2,"byteOffset":0,"componentType":5123,"count":264,"type":"SCALAR"},{"bufferView":2,"byteOffset":528,"componentType":5123,"count":126,"type":"SCALAR"},{"bufferView":2,"byteOffset":780,"componentType":5123,"count":126,"type":"SCALAR"}],"asset":{"generator":"Open CASCADE Technology 7.8 [dev.opencascade.org]","version":"2.0"},"bufferViews":[{"buffer":0,"byteLength":2136,"byteOffset":0,"byteStride":12,"target":34962},{"buffer":0,"byteLength":2136,"byteOffset":2136,"byteStride":12,"target":34962},{"buffer":0,"byteLength":1032,"byteOffset":4272,"target":34963}],"buffers":[{"byteLength":5304,"uri":"Unnamed1-Body.bin"}],"materials":[{"name":"mat_0","pbrMetallicRoughness":{"baseColorFactor":[0.168269544839859,0.19120186567306519,0.21586069464683533,1.0]},"doubleSided":true}],"meshes":[{"name":"Body","primitives":[{"attributes":{"NORMAL":3,"POSITION":0},"indices":6,"material":0,"mode":4},{"attributes":{"NORMAL":4,"POSITION":1},"indices":7,"material":0,"mode":4},{"attributes":{"NORMAL":5,"POSITION":2},"indices":8,"material":0,"mode":4}]}],"nodes":[{"mesh":0,"name":"Body"}],"scene":0,"scenes":[{"nodes":[0]}]}