{"accessors":[{"bufferView":0,"byteOffset":0,"componentType":5126,"count":88,"max":[0.09700000000000014,0.049966642418512085,0.049866614183177595],"min":[-0.09700000000000014,-0.049966642418511995,-0.05000000000000009],"type":"VEC3"},{"bufferView":0,"byteOffset":1056,"componentType":5126,"count":466,"max":[-0.097,0.049966642418511946,0.049866614183177546],"min":[-0.10000000000000006,-0.04996664241851199,-0.050000000000000044],"type":"VEC3"},{"bufferView":0,"byteOffset":6648,"componentType":5126,"count":466,"max":[0.10000000000000006,0.04996664241851207,0.049866614183177546],"min":[0.097,-0.049966642418511856,-0.050000000000000044],"type":"VEC3"},{"bufferView":0,"byteOffset":12240,"componentType":5126,"count":81,"max":[-0.1,0.04696551050938805,0.04686209265563576],"min":[-0.10000000000000006,-0.04696551050938809,-0.04700000000000004],"type":"VEC3"},{"bufferView":0,"byteOffset":13212,"componentType":5126,"count":81,"max":[0.10000000000000006,0.04696551050938818,0.04686209265563576],"min":[0.1,-0.046965510509387964,-0.04700000000000004],"type":"VEC3"},{"bufferView":0,"byteOffset":14184,"componentType":5126,"count":444,"max":[-0.097,0.042999999999999886,0.043000000000000045],"min":[-0.10000000000000006,-0.043000000000000115,-0.042999999999999955],"type":"VEC3"},{"bufferView":0,"byteOffset":19512,"componentType":5126,"count":444,"max":[0.10000000000000006,0.043000000000000024,0.043000000000000045],"min":[0.097,-0.04299999999999998,-0.042999999999999955],"type":"VEC3"},{"bufferView":0,"byteOffset":24840,"componentType":5126,"count":78,"max":[0.09700000000000006,0.039863379720266816,0.04000000000000004],"min":[-0.09700000000000006,-0.039863379720266906,-0.03999999999999996],"type":"VEC3"},{"bufferView":1,"byteOffset":0,"componentType":5126,"count":88,"type":"VEC3"},{"bufferView":1,"byteOffset":1056,"componentType":5126,"count":466,"type":"VEC3"},{"bufferView":1,"byteOffset":6648,"componentType":5126,"count":466,"type":"VEC3"},{"bufferView":1,"byteOffset":12240,"componentType":5126,"count":81,"type":"VEC3"},{"bufferView":1,"byteOffset":13212,"componentType":5126,"count":81,"type":"VEC3"},{"bufferView":1,"byteOffset":14184,"componentType":5126,"count":444,"type":"VEC3"},{"bufferView":1,"byteOffset":19512,"componentType":5126,"count":444,"type":"VEC3"},{"bufferView":1,"byteOffset":24840,"componentType":5126,"count":78,"type":"VEC3"},{"bufferView":2,"byteOffset":0,"componentType":5123,"count":258,"type":"SCALAR"},{"bufferView":2,"byteOffset":516,"componentType":5123,"count":2496,"type":"SCALAR"},{"bufferView":2,"byteOffset":5508,"componentType":5123,"count":2496,"type":"SCALAR"},{"bufferView":2,"byteOffset":10500,"componentType":5123,"count":243,"type":"SCALAR"},{"bufferView":2,"byteOffset":10988,"componentType":5123,"count":243,"type":"SCALAR"},{"bufferView":2,"byteOffset":11476,"componentType":5123,"count":2382,"type":"SCALAR"},{"bufferView":2,"byteOffset":16240,"componentType":5123,"count":2382,"type":"SCALAR"},{"bufferView":2,"byteOffset":21004,"componentType":5123,"count":228,"type":"SCALAR"}],"asset":{"generator":"Open CASCADE Technology 7.8 [dev.opencascade.org]","version":"2.0"},"bufferViews":[{"buffer":0,"byteLength":25776,"byteOffset":0,"byteStride":12,"target":34962},{"buffer":0,"byteLength":25776,"byteOffset":25776,"byteStride":12,"target":34962},{"buffer":0,"byteLength":21460,"byteOffset":51552,"target":34963}],"buffers":[{"byteLength":73012,"uri":"Unnamed3-Body.bin"}],"materials":[{"name":"mat_0","pbrMetallicRoughness":{"baseColorFactor":[0.6038273572921753,0.6038273572921753,0.7874122262001038,1.0]},"doubleSided":true}],"meshes":[{"name":"Body","primitives":[{"attributes":{"NORMAL":8,"POSITION":0},"indices":16,"material":0,"mode":4},{"attributes":{"NORMAL":9,"POSITION":1},"indices":17,"material":0,"mode":4},{"attributes":{"NORMAL":10,"POSITION":2},"indices":18,"material":0,"mode":4},{"attributes":{"NORMAL":11,"POSITION":3},"indices":19,"material":0,"mode":4},{"attributes":{"NORMAL":12,"POSITION":4},"indices":20,"material":0,"mode":4},{"attributes":{"NORMAL":13,"POSITION":5},"indices":21,"material":0,"mode":4},{"attributes":{"NORMAL":14,"POSITION":6},"indices":22,"material":0,"mode":4},{"attributes":{"NORMAL":15,"POSITION":7},"indices":23,"material":0,"mode":4}]}],"nodes":[{"mesh":0,"name":"Body"}],"scene":0,"scenes":[{"nodes":[0]}]}